<svg xmlns="http://www.w3.org/2000/svg" viewBox="0 0 520 520" width="520" height="520" role="img" aria-labelledby="t d" font-family="system-ui,-apple-system,Segoe UI,sans-serif"><title id="t">D4</title><desc id="d">24 roots · rank 4 · 28 dimensions · 6-fold shadow</desc><rect width="520" height="520" fill="#0a0a10"/><text x="260.0" y="34.0" fill="#f2ede3" font-size="19" text-anchor="middle" font-weight="700">D4</text><text x="260.0" y="54.0" fill="#9d9689" font-size="12.5" text-anchor="middle" font-weight="400">24 roots · rank 4 · 28 dimensions · 6-fold shadow</text><circle cx="260.0" cy="260.0" r="127.02" fill="none" stroke="#2c2c3a" stroke-width="1"/><circle cx="260.0" cy="260.0" r="220.00" fill="none" stroke="#2c2c3a" stroke-width="1"/><circle cx="196.49" cy="370.00" r="5.2" fill="#ffc247"/><circle cx="323.51" cy="150.00" r="5.2" fill="#ffc247"/><circle cx="196.49" cy="370.00" r="5.2" fill="#ffc247"/><circle cx="323.51" cy="150.00" r="5.2" fill="#ffc247"/><circle cx="323.51" cy="370.00" r="5.2" fill="#ffc247"/><circle cx="196.49" cy="150.00" r="5.2" fill="#ffc247"/><circle cx="323.51" cy="370.00" r="5.2" fill="#ffc247"/><circle cx="196.49" cy="150.00" r="5.2" fill="#ffc247"/><circle cx="132.98" cy="260.00" r="5.2" fill="#ffc247"/><circle cx="387.02" cy="260.00" r="5.2" fill="#ffc247"/><circle cx="132.98" cy="260.00" r="5.2" fill="#ffc247"/><circle cx="387.02" cy="260.00" r="5.2" fill="#ffc247"/><circle cx="260.00" cy="480.00" r="5.2" fill="#ffc247"/><circle cx="132.98" cy="260.00" r="5.2" fill="#ffc247"/><circle cx="387.02" cy="260.00" r="5.2" fill="#ffc247"/><circle cx="260.00" cy="40.00" r="5.2" fill="#ffc247"/><circle cx="69.47" cy="370.00" r="5.2" fill="#ffc247"/><circle cx="323.51" cy="370.00" r="5.2" fill="#ffc247"/><circle cx="196.49" cy="150.00" r="5.2" fill="#ffc247"/><circle cx="450.53" cy="150.00" r="5.2" fill="#ffc247"/><circle cx="196.49" cy="370.00" r="5.2" fill="#ffc247"/><circle cx="450.53" cy="370.00" r="5.2" fill="#ffc247"/><circle cx="69.47" cy="150.00" r="5.2" fill="#ffc247"/><circle cx="323.51" cy="150.00" r="5.2" fill="#ffc247"/></svg>